<?xml version="1.0" standalone="no"?>
<svg version="1.0" xmlns="http://www.w3.org/2000/svg"
 width="1187.000000pt" height="632.000000pt" viewBox="0 0 1187.000000 632.000000"
 preserveAspectRatio="xMidYMid meet">
<g transform="translate(0.000000,632.000000) scale(0.100000,-0.100000)"
fill="#fff" stroke="none">
<path d="M0 3160 l0 -3160 5935 0 5935 0 0 3160 0 3160 -5935 0 -5935 0 0
-3160z m7345 1710 c537 -26 744 -50 990 -115 203 -53 185 -39 185 -146 0 -76
-2 -90 -15 -86 -33 13 -270 69 -315 74 -84 10 -97 2 -137 -84 -71 -154 -187
-481 -233 -660 -30 -116 -25 -123 84 -123 l83 0 7 72 c19 202 163 301 393 269
46 -7 95 -17 109 -23 l24 -11 0 -339 0 -338 -697 0 c-410 0 -726 -5 -767 -10
-150 -22 -229 -86 -251 -203 -5 -27 -16 -42 -40 -57 -150 -93 -288 -373 -359
-727 -39 -195 -55 -335 -68 -605 l-12 -248 -2732 0 c-1503 0 -2735 3 -2737 8
-10 17 12 132 31 158 20 28 21 50 32 444 12 468 20 556 53 655 32 92 55 138
112 212 40 54 129 133 150 133 4 0 -19 -28 -51 -63 -33 -34 -73 -89 -91 -122
-36 -69 -60 -152 -47 -165 5 -5 70 -16 144 -24 l135 -16 30 37 c16 21 53 61
81 88 43 41 54 59 63 102 32 156 133 303 298 435 55 43 80 55 166 80 162 45
339 89 343 85 3 -2 -13 -15 -33 -29 -21 -14 -67 -53 -103 -87 l-65 -62 75 53
c76 53 219 131 299 162 80 31 610 130 811 151 78 9 83 12 230 135 426 358
1023 742 1272 818 198 61 675 133 1082 163 397 29 974 32 1471 9z m1375 -247
c309 -126 660 -367 945 -645 l120 -118 207 0 c127 0 209 4 213 10 3 6 48 10
99 10 80 0 97 -3 120 -21 31 -25 74 -104 92 -172 12 -45 11 -48 -9 -61 -12 -8
-39 -20 -59 -27 l-37 -13 122 -40 c156 -52 208 -82 240 -141 l26 -45 -1135 0
-1134 0 0 335 c0 223 3 335 10 335 20 0 125 -58 154 -85 28 -26 29 -29 23
-100 -3 -40 -10 -82 -16 -93 -10 -18 -3 -19 207 -25 119 -4 333 -7 475 -7
l258 0 -6 23 c-36 118 -249 363 -406 467 -159 105 -390 211 -606 277 l-93 28
0 92 0 93 53 -21 c28 -11 90 -36 137 -56z m-829 -1501 c35 -39 36 -47 3 -175
-46 -181 -72 -199 -299 -204 -87 -2 -162 -7 -166 -11 -3 -4 -14 -38 -23 -77
-9 -38 -21 -87 -27 -107 l-10 -38 -119 0 c-68 0 -120 4 -120 9 0 14 24 120 91
394 l61 248 290 -3 290 -3 29 -33z m629 -277 l0 -315 -27 -7 c-16 -5 -137 -8
-270 -8 -239 0 -243 0 -265 23 -21 20 -23 32 -22 110 1 125 63 376 108 435 54
72 74 77 289 77 l187 0 0 -315z m131 300 c62 -33 63 -79 4 -322 -44 -181 -63
-230 -105 -268 l-20 -18 0 311 0 312 45 0 c26 0 59 -7 76 -15z m434 3 c-2 -7
-38 -154 -80 -325 l-77 -313 -119 0 c-97 0 -119 3 -119 14 0 17 101 444 131
559 l21 77 124 0 c94 0 122 -3 119 -12z m505 -252 c44 -176 67 -252 72 -240 7
17 128 490 128 500 0 2 23 4 50 4 31 0 50 -4 50 -11 0 -7 -35 -153 -77 -325
l-77 -314 -161 0 -160 0 -65 264 c-36 146 -68 259 -71 253 -3 -7 -34 -126 -69
-265 l-63 -253 -46 3 -46 3 3 35 c3 30 102 459 133 573 l10 37 162 -2 162 -3
65 -259z m1038 222 c-5 -24 -14 -47 -19 -53 -5 -5 -53 -10 -105 -10 l-94 0
-10 -34 c-5 -18 -35 -141 -67 -272 l-58 -239 -122 0 c-68 0 -123 4 -123 8 0 8
116 483 126 515 5 15 -3 17 -68 17 -40 0 -84 3 -97 7 -21 5 -22 10 -17 46 4
22 9 44 12 49 3 4 151 8 329 8 l323 0 -10 -42z m-3134 -820 c3 -13 12 -119 22
-235 10 -117 20 -213 23 -213 7 1 73 109 202 327 l84 143 203 0 c189 0 203 -1
198 -17 -3 -10 -24 -94 -46 -188 -63 -260 -140 -576 -151 -617 l-10 -38 -159
0 c-106 0 -160 4 -160 11 0 12 58 248 67 269 3 8 7 24 8 35 2 11 22 94 44 184
23 90 40 165 38 167 -1 2 -61 -97 -132 -219 -71 -122 -150 -256 -175 -297 -25
-41 -54 -92 -65 -112 l-20 -38 -112 0 -112 0 -5 43 c-8 63 -27 302 -30 385 -2
40 -6 75 -10 79 -3 3 -7 29 -7 57 -3 117 -13 115 -42 -10 -15 -66 -52 -216
-80 -334 l-53 -215 -58 -3 c-32 -2 -64 -1 -71 2 -13 5 22 176 85 411 16 61 48
185 71 278 l41 167 204 0 c203 0 204 0 208 -22z m1754 2 c48 -22 72 -64 72
-127 0 -52 -105 -494 -131 -551 -31 -68 -59 -101 -109 -130 l-45 -27 -252 -3
-253 -4 0 416 c0 229 1 416 3 416 1 0 20 7 42 15 31 11 104 14 335 14 271 1
298 -1 338 -19z m1198 3 c-3 -10 -10 -40 -17 -68 -10 -45 -26 -64 -154 -195
-203 -208 -325 -366 -401 -522 l-28 -58 -183 0 -182 0 41 73 c80 141 247 341
452 540 l111 107 -264 0 -263 0 6 32 c3 18 11 49 17 70 l10 38 430 0 c405 0
430 -1 425 -17z m-1926 -433 l0 -410 -57 0 c-66 0 -117 21 -147 62 -16 23 -18
31 -8 53 7 15 8 24 2 20 -5 -3 -5 6 1 24 7 19 7 36 1 48 -11 21 93 455 121
510 16 31 74 103 83 103 2 0 4 -184 4 -410z m0 -840 l0 -60 -3875 0 c-2131 0
-3875 2 -3875 4 0 3 20 62 35 104 3 9 785 12 3860 12 l3855 0 0 -60z m2270 53
c0 -3 -8 -30 -17 -60 l-17 -53 -1113 0 -1113 0 0 60 0 60 1130 0 c622 0 1130
-3 1130 -7z"/>
<path d="M5955 4739 c-422 -15 -855 -57 -1035 -99 -253 -60 -574 -240 -1015
-569 -308 -229 -423 -316 -422 -318 1 -1 227 18 502 42 768 66 855 70 1640 69
385 0 732 -4 770 -9 l70 -8 -90 -14 c-229 -34 -542 -107 -755 -177 -155 -51
-432 -157 -426 -163 2 -3 53 12 113 31 260 86 565 156 883 205 325 50 501 65
1063 89 170 7 178 9 202 32 16 17 46 88 89 210 76 221 161 444 209 556 l35 82
-66 6 c-443 41 -1193 56 -1767 35z"/>
<path d="M6965 3583 c-102 -9 -271 -36 -385 -63 -69 -16 -159 -31 -200 -35
-242 -19 -637 -144 -1057 -333 l-113 -51 -62 10 c-35 6 -133 33 -218 61 l-155
51 -170 -3 c-93 -1 -458 -10 -810 -20 l-640 -19 805 4 805 5 140 -49 c77 -26
164 -54 193 -61 l52 -12 -44 -34 c-48 -37 -72 -87 -62 -132 4 -15 16 -53 29
-84 18 -49 25 -58 47 -58 14 0 186 16 382 37 197 20 360 34 363 31 3 -3 1 -34
-4 -69 -24 -150 -40 -576 -22 -565 4 3 11 34 15 68 9 92 53 347 81 473 21 94
32 120 72 180 67 97 228 256 355 351 126 93 325 209 406 236 80 26 253 55 407
68 72 5 146 12 165 13 19 2 -48 4 -150 4 -102 0 -203 -2 -225 -4z"/>
<path d="M3130 3033 c-603 -14 -1082 -29 -1105 -35 -33 -8 -72 -41 -213 -181
-95 -95 -188 -194 -205 -220 -28 -44 -34 -48 -62 -43 -16 3 -88 7 -160 10
-130 5 -130 5 -60 -8 39 -7 109 -19 158 -26 l87 -12 0 -157 c0 -110 23 -696
30 -758 0 -2 693 -3 1540 -3 l1541 0 -6 358 c-3 196 -8 416 -10 488 l-5 130
307 35 c170 19 292 35 273 37 -19 1 -161 -6 -314 -17 -154 -11 -280 -20 -281
-18 -3 4 -154 283 -177 326 -53 100 -92 122 -213 119 -33 0 -539 -12 -1125
-25z"/>
<path d="M9860 3782 c0 -11 120 -80 176 -101 l46 -18 -114 -6 c-62 -4 -189 -8
-283 -9 -131 -1 -94 -3 158 -10 360 -9 378 -7 408 48 12 23 11 30 -6 62 l-20
37 -183 3 c-100 1 -182 -1 -182 -6z"/>
<path d="M7534 3053 c-31 -4 -33 -7 -53 -88 -30 -121 -33 -115 52 -115 58 0
77 4 89 18 22 25 53 161 40 174 -12 12 -82 18 -128 11z"/>
<path d="M8317 3053 c-24 -3 -42 -12 -52 -27 -24 -36 -104 -379 -93 -393 15
-19 162 -17 181 1 20 20 112 395 100 407 -11 11 -86 18 -136 12z"/>
<path d="M8752 2155 c-11 -14 -27 -55 -35 -92 -9 -38 -35 -148 -58 -246 -32
-138 -39 -181 -30 -190 17 -17 213 -16 233 1 10 8 41 114 78 267 51 208 60
258 50 270 -10 12 -36 15 -115 15 -98 0 -105 -1 -123 -25z"/>
</g>
</svg>
